<?xml version="1.0" standalone="no"?>
<!DOCTYPE svg PUBLIC "-//W3C//DTD SVG 20010904//EN"
 "http://www.w3.org/TR/2001/REC-SVG-20010904/DTD/svg10.dtd">
<svg version="1.0" xmlns="http://www.w3.org/2000/svg"
 width="64.000000pt" height="64.000000pt" viewBox="0 0 64.000000 64.000000"
 preserveAspectRatio="xMidYMid meet">
<metadata>
Created by potrace 1.11, written by Peter Selinger 2001-2013
</metadata>
<g transform="translate(0.000000,64.000000) scale(0.100000,-0.100000)"
fill="#000000" stroke="none">
<path d="M424 606 c-47 -12 -45 0 -17 -146 28 -150 14 -189 -74 -203 -66 -10
-93 33 -118 183 -10 58 -21 110 -26 116 -11 14 -99 -4 -99 -20 0 -6 5 -29 10
-51 5 -22 11 -53 14 -70 15 -89 37 -213 41 -235 3 -14 7 -40 10 -57 2 -18 7
-49 11 -69 l6 -35 46 6 c60 8 62 10 52 48 -4 17 -11 46 -14 64 -5 30 -4 31 23
23 40 -11 105 20 131 62 l20 33 6 -34 c7 -33 7 -33 53 -26 25 4 49 9 52 10 3
2 -7 75 -23 162 -15 87 -31 177 -34 200 -8 49 -15 53 -70 39z"/>
</g>
</svg>
