<svg xmlns="http://www.w3.org/2000/svg" viewBox="0 0 199.75 33.73">
  <path fill="#ffffff" d="M17.92 4.64a10.27 10.27 0 013.68 5.92h-4.74a6.17 6.17 0 00-2.28-2.88 6.52 6.52 0 00-3.73-1.06 5.9 5.9 0 00-5.47 3.46 8.82 8.82 0 00-.8 3.9 8.76 8.76 0 00.8 3.88 6 6 0 002.24 2.56 6 6 0 003.23.89 6.51 6.51 0 003.73-1 6.27 6.27 0 002.28-2.88h4.74a10.3 10.3 0 01-3.68 5.92 11 11 0 01-7 2.17A11.07 11.07 0 015.2 24a10 10 0 01-3.84-4.08A12.73 12.73 0 010 14a12.76 12.76 0 011.36-6 10 10 0 013.82-4.08 11.1 11.1 0 015.73-1.46 11 11 0 017.01 2.18zM31.1 8.27a7 7 0 013.65-1v4.83h-1.31c-3.31 0-5 1.53-5 4.61v8.54H24V7.55h4.51v3.39a7.45 7.45 0 012.59-2.67zM49.07 8.42a7.89 7.89 0 013.25 3.15 9.55 9.55 0 011.18 4.85 9.5 9.5 0 01-1.18 4.83 8.14 8.14 0 01-3.25 3.15 10.4 10.4 0 01-9.31 0 8.14 8.14 0 01-3.25-3.15 9.5 9.5 0 01-1.18-4.83 9.55 9.55 0 011.18-4.85 7.89 7.89 0 013.25-3.15 10.48 10.48 0 019.31 0zm-7.85 4.14a5.25 5.25 0 00-1.32 3.86 5.23 5.23 0 001.32 3.85 4.51 4.51 0 006.4 0 5.26 5.26 0 001.31-3.85 5.29 5.29 0 00-1.31-3.86 4.51 4.51 0 00-6.4 0zM83.34 9.3a8 8 0 011.88 5.7v10.3h-4.48v-9.81a4.42 4.42 0 00-1-3.15 3.75 3.75 0 00-2.87-1.11 4 4 0 00-3 1.19 4.87 4.87 0 00-1.12 3.45v9.41h-4.53v-9.79a4.37 4.37 0 00-1-3.15 3.71 3.71 0 00-2.86-1.11 4 4 0 00-3 1.19 4.82 4.82 0 00-1.12 3.45v9.41h-4.56V7.55h4.51v3.36a5.48 5.48 0 012.23-2.67A6.54 6.54 0 0166 7.3a6.75 6.75 0 013.73 1 6.19 6.19 0 012.38 2.94 6.78 6.78 0 012.48-2.89 7.26 7.26 0 018.8.93zM115.82 9.3a8 8 0 011.88 5.7v10.3h-4.49v-9.81a4.41 4.41 0 00-1-3.15 3.75 3.75 0 00-2.87-1.11 4 4 0 00-3 1.19 4.87 4.87 0 00-1.12 3.45v9.41h-4.52v-9.79a4.37 4.37 0 00-1-3.15 3.71 3.71 0 00-2.86-1.11 4 4 0 00-3 1.19 4.82 4.82 0 00-1.12 3.45v9.41h-4.56V7.55h4.51v3.36a5.48 5.48 0 012.23-2.67 6.54 6.54 0 013.53-.94 6.75 6.75 0 013.73 1 6.24 6.24 0 012.38 2.94A6.71 6.71 0 01107 8.37a7.26 7.26 0 018.8.93zM137.4 7.55v17.73h-4.51v-3.39a5.57 5.57 0 01-2.19 2.67 6.42 6.42 0 01-3.51.94 3.49 3.49 0 01-2.59-1v5.91h-4.48V7.55h4.48v9.25a5 5 0 001.15 3.55 4 4 0 003.07 1.25 3.81 3.81 0 003-1.2 4.94 4.94 0 001.11-3.47V7.55zM156.41 9.31a8.18 8.18 0 011.82 5.69v10.3h-4.48v-9.81a4.61 4.61 0 00-1.09-3.28 3.84 3.84 0 00-3-1.17 4 4 0 00-3.07 1.25 5.09 5.09 0 00-1.16 3.58v9.41H141V7.55h4.51v3.55a5.75 5.75 0 012.32-2.8 6.92 6.92 0 013.73-1 6.3 6.3 0 014.85 2.01zM161.43.69a3.29 3.29 0 014 0 2.28 2.28 0 01.77 1.77 2.25 2.25 0 01-.77 1.75 2.89 2.89 0 01-2 .69 2.91 2.91 0 01-2-.69 2.25 2.25 0 01-.77-1.75 2.28 2.28 0 01.77-1.77zm4.26 6.86v17.73h-4.52V7.55zM179.23 21.41v3.87h-2.37a6.56 6.56 0 01-4.56-1.44q-1.58-1.44-1.58-4.8v-7.68h-2.47V7.55h2.47V3.17h4.51v4.38h4v3.81h-4v7.74a2.51 2.51 0 00.51 1.8 2.4 2.4 0 001.73.51zM185.48 7.55l4.83 12 4.48-12h5L188.9 33.73h-5l4-9-7.44-17.18z"/>
</svg>
